<svg xmlns="http://www.w3.org/2000/svg" id="svg2" width="200" height="126.667" version="1">
  <path style="fill:rgba(255, 255, 255, 0);stroke:none" id="rect2389" d="M0-.003h200.007v126.669H0z"/>
  <path style="fill:rgb(255, 255, 255)" d="M.007 87.33h200v39.687l-200 .051V87.33zm18.31 29.336c.001 0-.004-2.665-.008-2.67-.001 0-4.314.003-4.309 0 .002 0 .003-7.323 0-7.32-.003.005 2.598 0 2.597 0-.004 0 .008-2.75 0-2.745-.004.002-2.638 0-2.633 0 .002-.001.005-5.935.002-5.937 0 0 4.346-.003 4.342 0-.005.004 0-2.665 0-2.664H11.34v21.342s6.979-.009 6.978-.006zm8.118-7.88l1.168 7.877c.005.005 2.633.006 2.632 0-.002-.005-1.626-10.947-1.625-10.946 0 0 1.493-10.386 1.49-10.387h-2.378c.002 0-1.287 8.056-1.287 8.05 0 .008-1.726-8.045-1.722-8.05.004-.005-2.63 0-2.63 0-.001 0 2.229 10.383 2.226 10.387-.001.001-2.135 10.96-2.144 10.946-.003-.004 2.545 0 2.54 0-.005.001 1.738-7.873 1.73-7.877zm11.363-.159c.026.029 2.024-.113 3.258-1.56 1.41-1.654 1.593-3.15 1.595-5.356.002-3.206-1.089-6.443-4.518-6.38h-3.022s.007 21.344 0 21.335c0 0 2.63-.005 2.629-.002 0 0 .003-8.097.058-8.037zm-.064-9.965c.006.012.421-.04.814.035.904.174 1.48 1.011 1.48 3.32 0 2.31-.617 3.065-1.521 3.239-.416.08-.79.05-.771.052.02.002-.015-6.675-.002-6.646zm16.813 15.356l-3.885-.02s-.009-18.669-.006-18.668c.003.001-2.657.005-2.658 0 0 0-.007 21.336-.003 21.335 0 0 6.558.002 6.555.004-.003.002-.008-2.651-.003-2.651zm6.827 2.646c.001-.002-.002-21.335 0-21.334.005.002-2.66 0-2.664 0-.001 0-.002 21.332 0 21.332l2.664.002zm13.51-5.959c-.018-.007-2.465-.002-2.465-.002.002-.003-.004 1.293-.004 1.987.007 2.102-2.35 1.99-2.332-.064-.078-1.318-.047-3.758-.035-6.61.015-3.456-.114-5.647.037-6.8.223-1.699 2.335-1.83 2.337-.177 0 .61-.007 2.243 0 2.242.008-.002 2.466.013 2.468.009.003-.006-.023-1.238.007-1.974.044-1.087-.309-2.265-.69-2.783-.844-1.146-2.248-1.213-3.143-1.203-1.567.018-2.92.716-3.46 2.411-.33 1.036-.3 8.314-.3 8.296.002-.017-.002 6.181.001 6.251.016 2.598.926 4.482 3.702 4.504 2.346-.09 3.777-1.373 3.888-3.467.046-.885.011-1.75-.012-2.62zm7.122-15.375c.002-.003-2.665 0-2.665 0 0-.001.002 21.34 0 21.337a419.63 419.63 0 0 1 2.665 0c.015.004-.004-21.327 0-21.337zm10 2.667c.009-.005 2.622-.003 2.626 0 .004.004.003-2.653-.005-2.667-.008-.013-7.916-.003-7.914 0a537.5 537.5 0 0 1 0 2.667c-.003 0 2.633-.005 2.634 0 .001.007-.004 18.666 0 18.666h2.66c0-.003-.011-18.66-.001-18.666zm23.37 17.527c.795-1.43.625-4.84.63-4.84.008 0-2.587-.003-2.587 0-.002.008.013 2.413-.136 2.814-.074.203-.53.717-1.115.717-.61 0-.742-.427-.872-.654-.11-.192-.158-.679-.18-1.167-.006-.15-.102-12.173.046-13.069.203-1.221 1.859-1.094 2.096-.115.075.306.07 2.094.07 2.094.005-.003 2.7 0 2.695 0-.005.002.136-2.65-.763-4.239-1.077-1.899-3.761-2.398-5.597-.737-.576.522-1.003 1.168-1.166 2.82-.136 1.38-.053 3.547-.053 6.753 0 3.205-.102 6.723.09 8.125.26 1.906 1.865 2.999 3.606 2.97 1.18-.02 2.589-.293 3.236-1.472zm11.003.399c.844-.844 1.399-3.023 1.399-9.926 0-5.309-.056-8.068-.926-9.398-.984-1.744-4-1.586-4.807-.344-1.227 1.043-1.517 3.951-1.6 9.742-.106 7.307.197 8.634 1.037 9.734 1.192 1.56 3.684 1.528 4.897.192zm-3.456-9.957c.062-3.768.025-5.934.273-6.845.152-.557.584-.755.837-.754.267 0 .664.186.815.742.249.91.362 3.116.294 6.888-.073 4.08.039 6.533-.262 7.369-.082.228-.236.784-.769.794-1.234.024-1.287-2.153-1.188-8.194zm12.553-2.917s3.229 13.621 3.222 13.614h2.65l.009-21.333s-2.66-.011-2.663-.007c-.002.002-.002 13.957 0 13.96.002.004-3.367-13.953-3.365-13.953.005-.004-2.507 0-2.507 0-.001 0 .003 21.334 0 21.333-.003-.002 2.654 0 2.654 0v-13.614zm15.19-5.052c-.004.004 2.678.002 2.678 0 0 0-.007-2.673 0-2.667.003.003-8.002.003-8.005 0-.004-.002-.005 2.667 0 2.667.002 0 2.676-.004 2.68 0 .002.005-.008 18.675 0 18.666.001-.003 2.65-.007 2.647 0-.002.008.001-18.667 0-18.666zm13.916 18.666c0-.004-.004-2.672 0-2.667.002.004-3.896 0-3.898 0-.009-.002 0-7.317 0-7.32 0-.003 2.628 0 2.628 0s.004-2.742 0-2.745h-2.628v-5.966c.002.007 3.904-.002 3.898-.002-.002 0 .002-2.633 0-2.633h-6.575v21.333h6.575zm7.636-13.642l3.247 13.642s2.628-.003 2.623 0V95.33c-.003.001-2.65-.004-2.65 0v14.004l-3.364-14.004c-.002 0-2.48-.002-2.482 0 0 .003-.036 21.335-.033 21.333h2.659V103.02zm15.099-5.024c.008 0 2.695.003 2.695 0 0-.001-.007-2.664 0-2.667.003 0-8.033.002-8.038 0 .004.01.002 2.669 0 2.667.01.004 2.675.007 2.677 0 .003-.006.001 18.668 0 18.666-.002-.005 2.666 0 2.666 0V97.997zM7.002 78.164c.264-2.109 1.595-11.777 2.765-21.677l2.252-18.513s5.478.003 5.476 0C17.493 37.966 22.682 82 22.686 82c.002 0-5.947-.004-5.947 0 0 .005-.504-10.603-.593-10.637-.081-.03-2.306-.005-2.43.008l-1.043 10.63H6.52l.186-1.489.296-2.35zm8.967-11.41c-.158-4.43-1.133-19.118-1.069-19.043-.042-.005-1.114 19.038-1.064 19.055.041.014 2.102-.007 2.133-.011zm16.684-28.78h5.473c5.932 0 8.345 1.619 9.677 5.419 1.082 3.09 1.152 29.177.086 32.733-.43 1.44-1.654 3.349-2.717 4.244C43.477 81.796 42.584 82 37.947 82h-5.292l-.002-44.027zm9.393 36.13c.387-.95.627-6.665.627-14.349 0-11.078-.159-13.155-1.077-14.073-.942-.942-2.728-.92-2.732-.92-.012-.001-.215 30.42-.227 30.443-.005.013 2.946.003 3.409-1.102zM62.802 82c-1.235-14.684-2.987-29.342-4.142-44.027 0-.003 5.126-.007 5.125 0 1.205 8.626 1.16 17.38 2.2 26.023l3.347-26.023h5.324c-.006-.006-5.313 44.028-5.313 44.027h-6.541zm21.2-44.027h6.02L90.025 82h-6.036L84 37.974zm20.237 43.333c-2.367-1.146-3.692-4.43-3.449-8.55l-.117-3.666h5.875l.125 3.333c.278 2.778.556 3.333 1.667 3.333 1.13 0 1.363-.508 1.527-3.333.202-3.49.107-3.792-6.416-14.104-2.807-4.436-3.889-9.67-2.81-13.595 1.053-3.833 3.928-6.751 6.681-6.751 4.993 0 8.018 3.677 8.018 9.707v3.06s-5.731-.072-5.736-.077c-.01-.01.039-1.254.07-2.797.06-3.103-1.502-4.17-2.827-3.07-.705.585-.897 1.712-.678 3.99.239 2.484 1.2 4.533 4.42 9.415 4.478 6.79 5.425 9.304 5.403 13.884-.017 3.556-1.618 8.217-3.885 9.284-2.07.976-5.957.861-7.868-.063zm22.1-5.12c-.588-4.882-.38-22.531-.171-30.063.043-4.448 2.582-8.026 7.2-8.15 5.442.06 7.575 3.65 7.967 8.537.132 2.835.018 7.279.058 13.197.067 9.93-.23 14.257-.578 16.586-.76 3.183-2.068 5.503-6.823 5.708-4.889.022-6.91-2.054-7.653-5.815zm9.509-29.957c-.08-2.35-.921-2.828-1.982-2.844-1.247-.017-2.103 1.121-2.211 3.124-.127 2.327-.127 22.513 0 25.26.128 2.782-.072 4.288 2.31 4.253 2.127-.033 1.872-2.969 1.883-4.622.02-2.973.067-23.15 0-25.171zm16.825-8.256h5.266c4.09.185 5.598.657 6.759 1.692 2.37 2.114 3.309 5.2 3.309 10.886 0 4.354-.245 5.576-1.413 7.061l-1.412 1.796 1.412 1.504c1.307 1.39 1.413 2.238 1.413 11.294l-.008 9.79h-5.992v-8.612c0-8.022-.168-10.203-1.318-10.671-.216-.088-1.988-.042-2.004-.048V82h-6.012V37.974zm8.534 17.89c.242-.243.599-.748.764-2.252.15-1.356.12-3.664.12-4.865 0-4.33-3.188-3.875-3.218-3.917-.012-.017-.1 11.856-.098 11.853.004-.008 1.625-.013 2.432-.82zM182.339 82c-.008 0 .008-20.078.003-20.081-.001-.01-4.448-23.863-4.37-23.946h4.845c-.004-.006 2.75 15.955 2.812 15.898.071-.065 2.161-15.904 2.155-15.898a1370.875 1370.875 0 0 0 4.941 0c.007-.004-4.406 24.005-4.406 24.027v19.996s-5.983-.006-5.98.004zM.007-.003h200v34h-200v-34zm15.287 20.694c1.472-.549 3.114-.715 4.41-1.664 1.312-1.305 1.636-2.315 1.636-5.03 0-4.724-1.934-6.73-6.636-6.73H11.34v9.952c0 5.44.01 10.104.003 10.111-.007.008 3.953.001 3.95 0 .006-2.203-.04-4.433 0-6.639zm.046-6.694c0-1.926.01-2.68.021-2.683.017-.002.414-.012.587-.012 1.07 0 1.338.587 1.38 1.287.025.425.03.891.018 1.294-.013.392-.008.87-.013 1.321-.008.835-.257 1.567-1.713 1.497-.08-.004-.268 0-.272-.004-.002-.002-.008-.774-.008-2.7zm23.835 8.614c.002 0 1.75.014 1.752.012-.002.005.351 4.66.432 4.707.001-.006 3.916-.006 3.914 0-.003.007-4.233-20.064-4.238-20.062.005-.004-2.805-.003-2.8 0-.005-.006-3.182 20.055-3.186 20.062.002.004 3.608-.001 3.623 0-.012.01.509-4.718.503-4.719zm.775-9.528c-.002-.004.96 7.566.947 7.623.043.006-1.735-.019-1.739-.005-.013-.003.772-7.618.792-7.618zm78.294-5.815h-3.58c.002.002.042 9.832.055 9.875-.002-.027-4.084-9.868-4.084-9.875h-3.337V27.33h4.042c-.005.001-.178-10.954-.198-10.965-.006-.006 3.56 10.968 3.56 10.965.008.004 3.54.003 3.542 0 .006-.001.002-20.062 0-20.062zm21.762 4.062h2.671V7.268c.006 0-9.307.004-9.305 0 0 0-.009 4.049 0 4.037.004-.005 2.61-.001 2.625 0 .012 0-.026 16.029 0 16.025 0 0 3.979.004 4.009 0 .02-.002-.006-15.998 0-16zm19.995 16c-.005.006.755-4.67.72-4.665-.046.007 1.787-.001 1.812 0 .016 0 .867 4.665.877 4.665h3.433L163.14 7.268s-3.052.017-3.046 0c.006-.02-3.08 20.062-3.08 20.062H160zm.694-6.639c-.032.007.743-6.433.995-7.662.043.053.801 5.882 1.005 7.662-.04.001-1.983.01-2 0zm-96.686-1.36c.443.006.887.002 1.329.003l-.042 7.996h3.816l.001-4.146c0-2.867-.264-3.926-.673-5.044 0-.04-.425-.989-.428-.986 0 .001.345-.43.46-.685.242-.494.636-1.022.636-3.275 0-3.427-.786-5.926-3.473-5.926h-5.628V27.33h4c0-.002-.007-8.02.002-7.999zm-.002-6c0-.504.013-2.004-.002-2.003l1.325-.008c.017 0 .275.97.275 2.07 0 1.1-.246 1.943-.254 1.94-.022-.006-1.337.002-1.347.001-.012 0 .003-1.488.003-2zm28.63 14c0-.023.045-3.335.028-3.335-.013 0-4.028-.006-4.04-.004-.012.002-.013-5.335 0-5.333h2.639c.022.001.015-3.29 0-3.301-.022-.017-2.621 0-2.64 0-.02 0-.035-4.045 0-4.045.056 0 4.041-.037 4.043-.017.002.026-.001-2.041-.005-2.06-.003-.02.021-1.97.005-1.968h-7.994V27.33h3.79c.015 0 4.174-.02 4.174 0zm96.73-3.337h-3.932V7.268h-4.056V27.33h7.988s.002-3.335 0-3.336z" id="path2384"/>
  <path style="fill:rgb(255, 255, 255);stroke:none" id="rect2394" d="M.005 126.633h200.001v.043H.005z"/>
</svg>